<svg xmlns="http://www.w3.org/2000/svg" viewBox="0 0 400 400"><path d="M639 614a190 190 0 0 1 57 180 178 178 0 0 1-77 111s8-12 16-33a180 180 0 0 0-29-177l-23-24-9-9-38-37c-14-15-27-31-38-49-11-19-18-39-21-60-3-27 3-50 11-67a110 110 0 0 1 42-47l-7 14c-4 10-9 23-10 40 0 15 2 32 10 48 6 12 15 23 26 35l37 31c13 10 28 21 42 34l11 10z" style="fill:#ff2a2a" transform="matrix(1 0 0 .75 -327 -290)"/><path d="m418 694 16-17a138 138 0 0 0 28-127c-5-16-10-26-10-26s10 4 24 17c14 12 32 34 40 66a147 147 0 0 1-42 144l-9 8c-11 10-22 18-33 25l-27 22c-9 7-16 15-21 23-6 11-9 23-10 34a81 81 0 0 0 10 42l-11-7c-6-5-16-14-24-28-7-13-13-31-11-53 2-17 7-34 16-49 8-14 18-27 28-39l29-29 7-6z" style="fill:#ff2a2a" transform="matrix(1 0 0 .75 -327 -290)"/><path d="M612 639a125 125 0 0 1 35 126c-8 28-24 46-36 56-13 10-22 13-22 13s4-8 7-22c4-14 5-33 1-51-5-20-15-38-28-52l-13-13-5-5c-7-7-16-15-24-25-9-10-17-21-24-34s-12-28-13-43c-1-19 4-35 11-46a70 70 0 0 1 32-28l-4 10c-2 6-4 15-3 25 1 9 5 19 10 27l18 18 23 16 28 21 7 7z" style="fill:#ff2a2a" transform="matrix(1 0 0 .75 -327 -290)"/></svg>